<svg xmlns="http://www.w3.org/2000/svg" width="266.667" height="266.667" viewBox="0 0 266.667 266.667">
    <path fill="currentColor" d="M92.63 54.455a56.313 56.313 0 0 0 0 112.624h76.47a30.823 30.823 0 0 0 30.822-30.823v-15.82l28.242-14.117a18.067 18.067 0 0 0 7.294-6.67 18.069 18.069 0 0 0 2.699-9.5V66.16a11.704 11.704 0 0 0-11.707-11.705h-53.013a5.334 5.334 0 0 0 0 10.666h53.013a1.036 1.036 0 0 1 1.04 1.039v23.989a7.402 7.402 0 0 1-1.106 3.895 7.402 7.402 0 0 1-2.99 2.733l-31.189 15.591a5.326 5.326 0 0 0-2.95 4.77v19.118a20.155 20.155 0 0 1-20.155 20.156H92.63a45.647 45.647 0 0 1-32.276-77.921A45.647 45.647 0 0 1 92.63 65.12a5.333 5.333 0 1 0 0-10.666"></path>
    <path fill="currentColor" d="M214.744 104.395v31.861a7.412 7.412 0 0 1-7.41 7.41h-16.145a5.334 5.334 0 0 0 0 10.667h16.144a18.078 18.078 0 0 0 18.078-18.077v-31.861a5.333 5.333 0 1 0-10.667 0m-114.702 57.35v28.319h5.333l-5.322-.33a18.87 18.87 0 0 1-18.828 17.694c-.347 0-.695-.01-1.043-.03l-.296-.007H41.652a5.334 5.334 0 0 0 0 10.666h38.234v-5.333l-.295 5.325a29.532 29.532 0 0 0 31.108-27.655l.01-.33v-28.319a5.334 5.334 0 0 0-10.667 0"></path>
    <path fill="currentColor" d="M36.319 193.607v38.234a5.334 5.334 0 0 0 10.666 0v-38.234a5.334 5.334 0 0 0-10.666 0m79.015-144.19-5.28-.75-5.75 40.412 5.28.752-5.215-1.12a10.927 10.927 0 0 0 2.905 9.97 10.91 10.91 0 0 0 7.781 3.254h16.804v-2.803l-1.988 1.975a2.826 2.826 0 0 0 1.988.828v-2.803l-1.988 1.975 1.992-1.979h-2.805c0 .77.319 1.487.813 1.979l1.992-1.979h-2.805 2.763l-2.748-.295-.015.295h2.763l-2.748-.295.005-.037-3.455 30.176-.004.035c-.043.397-.064.794-.064 1.188a10.368 10.368 0 0 0 .926 4.312c.9 1.97 2.363 3.507 4.035 4.525a10.721 10.721 0 0 0 5.581 1.573 10.265 10.265 0 0 0 4.86-1.212c1.554-.826 2.939-2.117 3.926-3.698l.144-.243 27.464-49.3-4.659-2.595 4.152 3.346a7.845 7.845 0 0 0 1.745-4.919 7.903 7.903 0 0 0-2.157-5.42 7.802 7.802 0 0 0-2.523-1.783 7.877 7.877 0 0 0-3.184-.668h-19.348v3.099l2.206-2.176a3.126 3.126 0 0 0-2.206-.923v3.099l2.206-2.176-2.207 2.177h3.096a3.107 3.107 0 0 0-.89-2.177l-2.206 2.177h3.096-3.056l2.997.598a3.07 3.07 0 0 0 .059-.598h-3.056l2.997.598-5.23-1.044 5.158 1.352 7.163-27.351a5.324 5.324 0 0 0-.937-4.61 5.32 5.32 0 0 0-4.223-2.074h-36.15a5.332 5.332 0 0 0-5.28 4.583l5.28.75v5.334h29.24l-5.411 20.665-.071.308a7.567 7.567 0 0 0 2.036 6.803 7.572 7.572 0 0 0 5.39 2.253h19.347v-2.79l-1.126 2.549a2.84 2.84 0 0 0 1.126.241v-2.79l-1.126 2.549 1.142-2.587-2.388 1.523c.272.429.696.82 1.246 1.064l1.142-2.587-2.388 1.523 2.338-1.491h-2.768a2.75 2.75 0 0 0 .43 1.49l2.338-1.49h-2.768 2.817l-2.201-1.773c-.38.454-.628 1.162-.616 1.773h2.817l-2.201-1.773a5.18 5.18 0 0 0-.507.75l-27.464 49.299 4.66 2.596-4.516-2.837-.03.041v.001l.29.267-.15-.356-.14.09.29.266-.15-.356.135.321v-.354l-.136.033.136.321v-.354.028l.006-.028h-.006v.028l.006-.028-.027-.01-.041.075.057-.061-.016-.014-.041.075.057-.061-.288.309.383-.17-.095-.14-.288.31.383-.17-.419.187.45-.096-.031-.092-.419.188.45-.096-.24.051.243-.025-.004-.026-.238.051.242-.025v-.004l.003-.046-.004.036 3.455-30.176.004-.036a7.854 7.854 0 0 0-2.24-6.383 7.861 7.861 0 0 0-5.58-2.322h-16.804l-.184-.075-.081-.177.008-.067.066-.368 5.75-40.412-5.28-.752v5.334-5.334"></path>
</svg>