<svg xmlns="http://www.w3.org/2000/svg" width="266.667" height="266.667" viewBox="0 0 266.667 266.667">
    <path fill="currentColor" d="M111.772 183.819h-5.58l-.167.002c-.272.01-.544.014-.815.014-6.853-.002-13.077-2.713-17.684-7.163-4.6-4.458-7.523-10.59-7.743-17.499a25.674 25.674 0 0 1 0-1.598 5.333 5.333 0 0 0-5.158-5.502 5.333 5.333 0 0 0-5.503 5.159 34.957 34.957 0 0 0 0 2.276 36.029 36.029 0 0 0 10.987 24.83 36.043 36.043 0 0 0 26.25 10.145l-.167-5.33v5.332h5.58a5.333 5.333 0 1 0 0-10.666"></path>
    <path fill="currentColor" d="M42.535 125.528h-5.333a37.117 37.117 0 0 0 10.899 26.31 37.114 37.114 0 0 0 26.31 10.898 37.116 37.116 0 0 0 26.31-10.897 37.118 37.118 0 0 0 10.899-26.311V96.549a5.369 5.369 0 0 0-1.562-3.772 5.373 5.373 0 0 0-3.772-1.561h-63.75c-1.405 0-2.779.57-3.772 1.561a5.369 5.369 0 0 0-1.562 3.772v28.979H47.87v-23.645h53.084v23.645c-.002 7.345-2.962 13.948-7.774 18.768-4.82 4.812-11.422 7.77-18.768 7.773-7.346-.002-13.948-2.961-18.768-7.773-4.812-4.82-7.772-11.423-7.774-18.768h-5.334"></path>
    <path fill="currentColor" d="M62.247 96.55V73.72a5.333 5.333 0 1 0-10.666 0v22.83a5.334 5.334 0 0 0 10.666 0m35.089 0V73.72a5.334 5.334 0 0 0-10.667 0v22.83a5.334 5.334 0 0 0 10.667 0m16.749-26.99h45.879l-11.443 43.7-.069.3a9.448 9.448 0 0 0 2.541 8.508 9.446 9.446 0 0 0 6.73 2.813h35.642v-.65l-.26.588.26.062v-.65l-.26.588.29-.655-.611.388c.053.087.16.195.321.267l.29-.655-.611.388.519-.33h-.61a.59.59 0 0 0 .091.33l.519-.33h-.61.7l-.557-.449c-.053.048-.155.292-.143.45h.7l-.557-.45a5.074 5.074 0 0 0-.507.751l-50.593 90.819 4.659 2.594-4.516-2.837c-.51.802-1.023 1.227-1.559 1.521a3.788 3.788 0 0 1-1.792.435c-1.075.01-2.259-.447-3.03-1.161a3.71 3.71 0 0 1-.895-1.21c-.206-.457-.336-.97-.339-1.649 0-.177.01-.365.032-.568l-.004.039 6.364-55.59.004-.037a9.982 9.982 0 0 0-2.848-8.112 9.982 9.982 0 0 0-7.091-2.952h-10.334a5.334 5.334 0 0 0 0 10.667h10.334v-.673l-.477.474c.1.112.314.202.477.199v-.673l-.477.474.482-.479h-.674c0 .19.083.374.192.479l.482-.479h-.674.587l-.584-.062-.003.062h.587l-.584-.062.004-.039-6.365 55.588-.004.039c-.061.572-.093 1.14-.093 1.705a14.603 14.603 0 0 0 1.301 6.078c1.258 2.754 3.31 4.918 5.689 6.369a15.288 15.288 0 0 0 7.941 2.24 14.442 14.442 0 0 0 6.83-1.7c2.174-1.159 4.12-2.959 5.553-5.247l.144-.243 50.593-90.818-4.66-2.596 4.153 3.346c1.484-1.825 2.231-4.101 2.219-6.242a10.074 10.074 0 0 0-2.748-6.902 9.883 9.883 0 0 0-3.196-2.26 9.979 9.979 0 0 0-4.05-.846h-35.643v1.214l.864-.852a1.244 1.244 0 0 0-.864-.362v1.214l.864-.852-.867.856h1.212a1.212 1.212 0 0 0-.345-.856l-.867.856h1.212-1.17l1.147.231.023-.23h-1.17l1.147.23-5.229-1.052 5.16 1.35 13.193-50.383a5.324 5.324 0 0 0-.937-4.61 5.322 5.322 0 0 0-4.223-2.076h-52.788a5.334 5.334 0 0 0 0 10.667m70.912 124.956h7.548l.167-.001c.272-.01.543-.013.815-.013 6.718 0 12.83 2.606 17.41 6.902a5.333 5.333 0 0 0 7.303-7.776 36.036 36.036 0 0 0-25.861-9.776l.166 5.33v-5.333h-7.548a5.334 5.334 0 0 0 0 10.667"></path>
</svg>