<svg xmlns="http://www.w3.org/2000/svg" width="266.667" height="266.667" viewBox="0 0 266.667 266.667">
    <path fill="currentColor" d="M33.215 144.584v5.333h16.321v43.471l-10.988-.002v-48.802h-5.333v5.333-5.333H27.88v54.136a5.37 5.37 0 0 0 1.563 3.772 5.365 5.365 0 0 0 3.77 1.561H54.87a5.367 5.367 0 0 0 3.772-1.56 5.37 5.37 0 0 0 1.562-3.773v-54.136a5.365 5.365 0 0 0-1.562-3.77 5.366 5.366 0 0 0-3.772-1.563H33.215a5.362 5.362 0 0 0-3.771 1.563 5.365 5.365 0 0 0-1.563 3.77h5.334"></path>
    <path fill="currentColor" d="M75.702 148.185a27.066 27.066 0 0 1-9.955 1.894H54.87a5.367 5.367 0 0 0-3.77 1.561 5.369 5.369 0 0 0-1.563 3.772v32.481c0 1.404.57 2.779 1.562 3.771a5.367 5.367 0 0 0 3.771 1.563h10.847a70.474 70.474 0 0 0 37.595-10.99 5.333 5.333 0 1 0-5.717-9.004 59.802 59.802 0 0 1-31.916 9.327h.019-5.494v-21.815h5.544c4.847 0 9.545-.928 13.876-2.64a5.334 5.334 0 0 0-3.921-9.92m161.525-24.438v-5.334h-16.321v-43.47h10.988v48.804h5.333v-5.334 5.334h5.333V69.609a5.367 5.367 0 0 0-1.562-3.77 5.368 5.368 0 0 0-3.771-1.563h-21.655c-1.404 0-2.778.57-3.77 1.563a5.368 5.368 0 0 0-1.563 3.77v54.138c0 1.404.57 2.777 1.563 3.77a5.366 5.366 0 0 0 3.77 1.563h21.655c1.404 0 2.777-.57 3.77-1.563a5.368 5.368 0 0 0 1.563-3.77h-5.333"></path>
    <path fill="currentColor" d="M194.741 120.145a27.035 27.035 0 0 1 9.954-1.893h10.878a5.37 5.37 0 0 0 3.771-1.561 5.369 5.369 0 0 0 1.563-3.772V80.437c0-1.404-.57-2.778-1.563-3.77a5.366 5.366 0 0 0-3.77-1.563h-10.848a70.48 70.48 0 0 0-37.596 10.988 5.334 5.334 0 0 0 5.717 9.005 59.804 59.804 0 0 1 31.917-9.326h-.02 5.495v21.814h-5.545c-4.847 0-9.544.928-13.876 2.642a5.333 5.333 0 1 0 3.922 9.918m-90.775-34.508-5.28-.75-7.156 50.285 5.28.752-5.214-1.12a12.292 12.292 0 0 0 3.269 11.218 12.271 12.271 0 0 0 8.755 3.66h20.91v-2.185l-1.55 1.54a2.21 2.21 0 0 0 1.55.646v-2.186l-1.55 1.54 1.552-1.544h-2.186c0 .602.25 1.164.633 1.544l1.553-1.544h-2.186 2.135l-2.123-.228-.012.228h2.135l-2.123-.228.004-.036-4.299 37.547-.004.039c-.048.446-.072.893-.072 1.334a11.59 11.59 0 0 0 1.035 4.824 11.574 11.574 0 0 0 4.514 5.062 12.06 12.06 0 0 0 6.267 1.767 11.495 11.495 0 0 0 5.43-1.354c1.735-.923 3.283-2.362 4.399-4.15l.144-.24 34.172-61.345-4.659-2.594 4.153 3.345c1.252-1.537 1.894-3.483 1.882-5.303a8.533 8.533 0 0 0-2.328-5.849 8.41 8.41 0 0 0-2.719-1.921 8.466 8.466 0 0 0-3.435-.72h-24.074v2.55l1.816-1.79a2.575 2.575 0 0 0-1.816-.76v2.55l1.816-1.79-1.819 1.793h2.55a2.556 2.556 0 0 0-.731-1.793l-1.819 1.793h2.55-2.522l2.472.497c.032-.158.05-.326.05-.497h-2.522l2.472.497-5.228-1.052 5.159 1.352 8.912-34.033a5.322 5.322 0 0 0-.938-4.61 5.324 5.324 0 0 0-4.221-2.074h-44.983a5.333 5.333 0 0 0-5.28 4.583l5.28.75v5.334h38.072l-7.161 27.348-.068.298a8.111 8.111 0 0 0 2.181 7.304 8.11 8.11 0 0 0 5.778 2.416h24.074v-2.17l-.874 1.98c.286.129.612.192.874.19v-2.17l-.874 1.98.894-2.026-1.872 1.194c.208.33.54.638.978.832l.894-2.026-1.872 1.194 1.81-1.154h-2.143c.003.444.123.82.333 1.154l1.81-1.154h-2.143 2.204l-1.724-1.389c-.285.337-.492.91-.48 1.39h2.204l-1.724-1.39a5.006 5.006 0 0 0-.507.75l-34.173 61.343 4.659 2.596-4.516-2.837c-.195.3-.308.364-.405.423a.838.838 0 0 1-.392.088c-.29.01-.696-.15-.885-.337l-.192-.253a.907.907 0 0 1-.072-.396l.01-.198-.004.039 4.3-37.547.004-.038a8.48 8.48 0 0 0-8.434-9.39l-20.91.001a1.572 1.572 0 0 1-1.158-.481 1.616 1.616 0 0 1-.437-1.491l.066-.37 7.155-50.285-5.28-.752v5.334-5.334"></path>
</svg>