<svg xmlns="http://www.w3.org/2000/svg" width="266.667" height="266.667" viewBox="0 0 266.667 266.667">
    <path fill="currentColor" d="M118.108 185.33c-19.658-.006-37.405-7.96-50.292-20.84-12.88-12.888-20.828-30.638-20.83-50.295v-.014c.006-19.657 7.958-37.404 20.84-50.29C80.714 51.012 98.462 43.063 118.12 43.06v-4.53l-.078 4.53h.078v-4.53l-.078 4.53h.09c34.676.004 64.299 25.016 70.115 59.2a5.333 5.333 0 1 0 10.516-1.79c-6.694-39.311-40.751-68.067-80.628-68.077l-.001 5.334.091-5.332-.105-.002c-22.569-.002-43.05 9.162-57.837 23.955C45.49 71.131 36.32 91.611 36.32 114.181v.014c-.003 22.569 9.162 43.052 23.954 57.837 14.783 14.795 35.263 23.963 57.833 23.964a5.332 5.332 0 1 0 .002-10.667"></path>
    <path fill="currentColor" d="M118.107 185.33c-1.33-.005-2.635-.308-4.07-1.007-2.496-1.21-5.345-3.78-8.053-7.746-4.079-5.924-7.767-14.814-10.33-25.56-2.578-10.75-4.077-23.358-4.075-36.822 0-10.259.867-20.019 2.423-28.84 2.318-13.23 6.244-24.363 10.83-31.77 2.28-3.706 4.712-6.454 6.99-8.146 1.14-.851 2.234-1.444 3.269-1.824 1.038-.379 2.016-.554 3.016-.555 1.197.003 2.368.25 3.64.807 2.21.962 4.72 2.982 7.184 6.165 3.708 4.75 7.217 11.992 9.898 20.917 2.694 8.928 4.602 19.536 5.392 31.078a5.335 5.335 0 0 0 10.643-.731c-.643-9.341-1.97-18.15-3.87-26.159-2.869-12.016-6.973-22.221-12.28-29.809-2.666-3.79-5.65-6.945-9.084-9.244-3.415-2.295-7.373-3.699-11.523-3.69-3.07-.005-6.06.762-8.772 2.1-4.764 2.355-8.725 6.311-12.148 11.286-5.118 7.487-9.1 17.437-11.907 29.108-2.794 11.668-4.366 25.053-4.368 39.307 0 10.86.915 21.217 2.584 30.691 2.52 14.218 6.674 26.435 12.258 35.518 2.804 4.537 5.98 8.32 9.688 11.096 1.854 1.383 3.848 2.508 5.977 3.29a19.33 19.33 0 0 0 6.688 1.206 5.334 5.334 0 0 0 0-10.667"></path>
    <path fill="currentColor" d="M45.997 94.039h144.227a5.332 5.332 0 0 0 5.333-5.334 5.333 5.333 0 0 0-5.333-5.333H45.997a5.334 5.334 0 0 0 0 10.667m0 50.978h71.581a5.334 5.334 0 0 0 0-10.666h-71.58a5.334 5.334 0 0 0 0 10.666m98.459-18.618-5.281-.751-6.506 45.721 5.28.752-5.214-1.12a11.657 11.657 0 0 0 3.101 10.641 11.632 11.632 0 0 0 8.304 3.473h19.012v-2.471l-1.752 1.741a2.489 2.489 0 0 0 1.752.73v-2.471l-1.752 1.741 1.756-1.744h-2.473c0 .679.283 1.312.717 1.744l1.756-1.744h-2.473 2.42l-2.405-.258-.015.258h2.42l-2.405-.258.004-.038-3.91 34.139-.004.037c-.045.423-.068.847-.068 1.267a11.037 11.037 0 0 0 .984 4.588 11.008 11.008 0 0 0 4.294 4.813 11.447 11.447 0 0 0 5.949 1.678 10.925 10.925 0 0 0 5.167-1.288c1.652-.879 3.124-2.248 4.181-3.942l.143-.242 31.072-55.776-4.659-2.595 4.152 3.347a8.167 8.167 0 0 0 1.819-5.127 8.233 8.233 0 0 0-2.25-5.65 8.11 8.11 0 0 0-2.628-1.858 8.203 8.203 0 0 0-3.318-.696h-21.89v2.804l1.995-1.968a2.825 2.825 0 0 0-1.995-.836v2.804l1.995-1.968-1.997 1.97h2.802a2.806 2.806 0 0 0-.805-1.97l-1.997 1.97h2.802-2.762l2.709.544c.035-.174.053-.357.053-.543h-2.762l2.709.543-5.23-1.047 5.16 1.35 8.102-30.944a5.322 5.322 0 0 0-.937-4.609 5.32 5.32 0 0 0-4.222-2.075h-40.9a5.335 5.335 0 0 0-5.281 4.583l5.281.75v5.334h33.99l-6.352 24.259-.07.304a7.863 7.863 0 0 0 7.712 9.412h21.89v-2.458l-.991 2.244c.321.144.685.215.99.214v-2.458l-.99 2.244 1.01-2.285-2.111 1.345c.237.376.612.723 1.101.94l1.01-2.285-2.111 1.345 2.053-1.31h-2.432c.003.5.139.932.379 1.31l2.053-1.31h-2.432 2.488l-1.945-1.566c-.33.392-.555 1.028-.543 1.567h2.488l-1.945-1.567a5.191 5.191 0 0 0-.507.751l-31.072 55.776 4.66 2.596-4.516-2.839c-.136.206-.173.202-.188.216l-.128.023c-.141.01-.4-.093-.479-.18l-.06-.073c-.004-.015-.018-.028-.021-.159l.007-.127-.004.036 3.909-34.138.004-.038a8.188 8.188 0 0 0-2.335-6.653 8.193 8.193 0 0 0-5.816-2.42h-19.012a.945.945 0 0 1-.706-.292.993.993 0 0 1-.295-.693l.025-.223.066-.368 6.506-45.723-5.28-.75v5.333-5.333"></path>
</svg>